<svg width="6" height="10" viewBox="0 0 6 10" fill="none" xmlns="http://www.w3.org/2000/svg">
<path d="M5.74792 9.0625C5.91597 8.90972 6 8.71528 6 8.47917C6 8.24306 5.91597 8.04861 5.74792 7.89583L2.17292 4.64583L5.74792 1.39583C5.91597 1.24306 6 1.04861 6 0.8125C6 0.576389 5.91597 0.381944 5.74792 0.229166C5.57986 0.0763886 5.36597 0 5.10625 0C4.84653 0 4.63264 0.0763886 4.46458 0.229166L0.247917 4.0625C0.156251 4.14583 0.0911672 4.23611 0.0526674 4.33333C0.0147784 4.43056 -0.00416638 4.53472 -0.00416637 4.64583C-0.00416637 4.75694 0.0147784 4.86111 0.0526674 4.95833C0.0911672 5.05556 0.156251 5.14583 0.247917 5.22917L4.46458 9.0625C4.63264 9.21528 4.84653 9.29167 5.10625 9.29167C5.36597 9.29167 5.57986 9.21528 5.74792 9.0625Z" fill="white"/>
</svg>
