<svg width="6" height="10" viewBox="0 0 6 10" fill="none" xmlns="http://www.w3.org/2000/svg">
<path d="M0.252083 9.0625C0.084027 8.90972 -4.32176e-07 8.71528 -4.20468e-07 8.47917C-4.08759e-07 8.24306 0.084027 8.04861 0.252083 7.89583L3.82708 4.64583L0.252083 1.39583C0.0840274 1.24306 -5.19988e-08 1.04861 -4.02905e-08 0.8125C-2.85821e-08 0.576389 0.0840274 0.381944 0.252083 0.229166C0.420139 0.0763886 0.634027 0 0.893749 0C1.15347 0 1.36736 0.0763886 1.53542 0.229166L5.75208 4.0625C5.84375 4.14583 5.90883 4.23611 5.94733 4.33333C5.98522 4.43056 6.00417 4.53472 6.00417 4.64583C6.00417 4.75694 5.98522 4.86111 5.94733 4.95833C5.90883 5.05556 5.84375 5.14583 5.75208 5.22917L1.53542 9.0625C1.36736 9.21528 1.15347 9.29167 0.893749 9.29167C0.634027 9.29167 0.420138 9.21528 0.252083 9.0625Z" fill="#1E1E1E"/>
</svg>
