<svg width="34" height="34" viewBox="0 0 34 34" fill="none" xmlns="http://www.w3.org/2000/svg">
<path d="M24.95 26C22.8 26 20.7043 25.5207 18.663 24.562C16.621 23.604 14.8127 22.3373 13.238 20.762C11.6627 19.1873 10.396 17.379 9.438 15.337C8.47933 13.2957 8 11.2 8 9.05C8 8.75 8.1 8.5 8.3 8.3C8.5 8.1 8.75 8 9.05 8H13.1C13.3333 8 13.5417 8.075 13.725 8.225C13.9083 8.375 14.0167 8.56667 14.05 8.8L14.7 12.3C14.7333 12.5333 14.7293 12.7457 14.688 12.937C14.646 13.129 14.55 13.3 14.4 13.45L12 15.9C12.7 17.1 13.575 18.225 14.625 19.275C15.675 20.325 16.8333 21.2333 18.1 22L20.45 19.65C20.6 19.5 20.796 19.3873 21.038 19.312C21.2793 19.2373 21.5167 19.2167 21.75 19.25L25.2 19.95C25.4333 20 25.625 20.1123 25.775 20.287C25.925 20.4623 26 20.6667 26 20.9V24.95C26 25.25 25.9 25.5 25.7 25.7C25.5 25.9 25.25 26 24.95 26Z" fill="white"/>
<circle cx="17" cy="17" r="16.5" stroke="white"/>
</svg>
