<svg width="18" height="16" viewBox="0 0 18 16" fill="none" xmlns="http://www.w3.org/2000/svg">
<path d="M9 3.49844C11.8425 3.49844 14.3775 5.09594 15.615 7.62344C15.1725 8.53844 14.55 9.32594 13.8075 9.96344L14.865 11.0209C15.9075 10.0984 16.7325 8.94344 17.25 7.62344C15.9525 4.33094 12.75 1.99844 9 1.99844C8.0475 1.99844 7.1325 2.14844 6.27 2.42594L7.5075 3.66344C7.995 3.56594 8.49 3.49844 9 3.49844ZM8.1975 4.35344L9.75 5.90594C10.1775 6.09344 10.5225 6.43844 10.71 6.86594L12.2625 8.41844C12.3225 8.16344 12.3675 7.89344 12.3675 7.61594C12.375 5.75594 10.86 4.24844 9 4.24844C8.7225 4.24844 8.46 4.28594 8.1975 4.35344ZM1.5075 1.90094L3.5175 3.91094C2.295 4.87094 1.3275 6.14594 0.75 7.62344C2.0475 10.9159 5.25 13.2484 9 13.2484C10.14 13.2484 11.235 13.0309 12.24 12.6334L14.805 15.1984L15.8625 14.1409L2.565 0.835938L1.5075 1.90094ZM7.1325 7.52594L9.09 9.48344C9.06 9.49094 9.03 9.49844 9 9.49844C7.965 9.49844 7.125 8.65844 7.125 7.62344C7.125 7.58594 7.1325 7.56344 7.1325 7.52594ZM4.5825 4.97594L5.895 6.28844C5.7225 6.70094 5.625 7.15094 5.625 7.62344C5.625 9.48344 7.14 10.9984 9 10.9984C9.4725 10.9984 9.9225 10.9009 10.3275 10.7284L11.0625 11.4634C10.4025 11.6434 9.7125 11.7484 9 11.7484C6.1575 11.7484 3.6225 10.1509 2.385 7.62344C2.91 6.55094 3.675 5.66594 4.5825 4.97594Z" fill="#052126" fill-opacity="0.3"/>
</svg>
