<svg width="35" height="35" viewBox="0 0 35 35" fill="none" xmlns="http://www.w3.org/2000/svg">
<g clip-path="url(#clip0_6019_397)">
<path d="M17.5 0C27.175 0 35 7.825 35 17.5C35 27.175 27.175 35 17.5 35C7.825 35 0 27.175 0 17.5C0 7.825 7.825 0 17.5 0ZM14.3 26.725C22.05 26.725 26.3 20.3 26.3 14.725V14.175C27.125 13.575 27.85 12.825 28.4 11.975C27.65 12.3 26.825 12.525 25.975 12.65C26.85 12.125 27.525 11.3 27.825 10.325C27 10.8 26.1 11.15 25.15 11.35C24.375 10.525 23.275 10.025 22.075 10.025C19.75 10.025 17.85 11.925 17.85 14.25C17.85 14.575 17.875 14.9 17.975 15.2C14.475 15.025 11.35 13.35 9.275 10.8C8.925 11.425 8.7 12.15 8.7 12.925C8.7 14.375 9.45 15.675 10.575 16.425C9.875 16.425 9.225 16.225 8.675 15.9V15.95C8.675 18 10.125 19.7 12.05 20.1C11.7 20.2 11.325 20.25 10.95 20.25C10.675 20.25 10.425 20.225 10.15 20.175C10.675 21.85 12.25 23.075 14.075 23.1C12.625 24.225 10.8 24.9 8.825 24.9C8.475 24.9 8.15 24.9 7.825 24.85C9.675 26.05 11.9 26.75 14.275 26.75" fill="white"/>
</g>
<defs>
<clipPath id="clip0_6019_397">
<rect width="35" height="35" fill="white"/>
</clipPath>
</defs>
</svg>
