<svg width="26" height="26" viewBox="0 0 26 26" fill="none" xmlns="http://www.w3.org/2000/svg">
<path d="M23.5121 1.03125L16.027 3.84199L18.7133 5.53555C13.9145 11.5785 6.97266 15.3008 1.10742 16.7176L2.76898 19.7441C9.35938 17.5961 16.3367 13.7215 20.8309 6.87617L22.8773 8.16602L23.5121 1.03125ZM23.9031 6.95742L23.6594 9.74023L21.0543 8.09492C20.9629 8.23203 20.8664 8.36406 20.7699 8.50117V24.7309H24.7309V6.95742H23.9031ZM16.2555 13.4574C15.6105 14.016 14.9453 14.5441 14.2699 15.0418V24.7309H18.2309V13.4574H16.2555ZM9.97383 17.723C9.24258 18.109 8.51133 18.4645 7.76992 18.7996V24.7309H11.7309V17.723H9.97383ZM1.26992 19.9574V24.7309H5.23086V19.9574H4.94242C4.18984 20.2367 3.43777 20.4957 2.69027 20.7344L2.33176 20.8461L1.84426 19.9574H1.26992Z" fill="white"/>
</svg>
