<svg width="35" height="35" viewBox="0 0 35 35" fill="none" xmlns="http://www.w3.org/2000/svg">
<g clip-path="url(#clip0_6019_399)">
<path d="M31.7188 0H3.28125C1.47656 0 0 1.47656 0 3.28125V31.7188C0 33.5234 1.47656 35 3.28125 35H31.7188C33.5234 35 35 33.5234 35 31.7188V3.28125C35 1.47656 33.5234 0 31.7188 0ZM13.125 28.4375H8.75V13.125H13.125V28.4375ZM10.9375 10.9375C10.3573 10.9375 9.80094 10.707 9.3907 10.2968C8.98047 9.88656 8.75 9.33016 8.75 8.75C8.75 8.16984 8.98047 7.61344 9.3907 7.2032C9.80094 6.79297 10.3573 6.5625 10.9375 6.5625C11.5177 6.5625 12.0741 6.79297 12.4843 7.2032C12.8945 7.61344 13.125 8.16984 13.125 8.75C13.125 9.33016 12.8945 9.88656 12.4843 10.2968C12.0741 10.707 11.5177 10.9375 10.9375 10.9375ZM28.4375 28.4375H24.0625V19.6875C24.0625 19.1073 23.832 18.5509 23.4218 18.1407C23.0116 17.7305 22.4552 17.5 21.875 17.5C21.2948 17.5 20.7384 17.7305 20.3282 18.1407C19.918 18.5509 19.6875 19.1073 19.6875 19.6875V28.4375H15.3125V13.125H19.6875V15.8397C20.5888 14.6016 21.9713 13.125 23.5156 13.125C26.2369 13.125 28.4375 15.5728 28.4375 18.5938V28.4375Z" fill="white"/>
</g>
<defs>
<clipPath id="clip0_6019_399">
<rect width="35" height="35" fill="white"/>
</clipPath>
</defs>
</svg>
