<svg width="34" height="34" viewBox="0 0 34 34" fill="none" xmlns="http://www.w3.org/2000/svg">
<path d="M17 17C17.55 17 18.021 16.804 18.413 16.412C18.8043 16.0207 19 15.55 19 15C19 14.45 18.8043 13.979 18.413 13.587C18.021 13.1957 17.55 13 17 13C16.45 13 15.9793 13.1957 15.588 13.587C15.196 13.979 15 14.45 15 15C15 15.55 15.196 16.0207 15.588 16.412C15.9793 16.804 16.45 17 17 17ZM17 27C14.3167 24.7167 12.3127 22.5957 10.988 20.637C9.66267 18.679 9 16.8667 9 15.2C9 12.7 9.80433 10.7083 11.413 9.225C13.021 7.74167 14.8833 7 17 7C19.1167 7 20.979 7.74167 22.587 9.225C24.1957 10.7083 25 12.7 25 15.2C25 16.8667 24.3377 18.679 23.013 20.637C21.6877 22.5957 19.6833 24.7167 17 27Z" fill="white"/>
<circle cx="17" cy="17" r="16.5" stroke="white"/>
</svg>
