<svg width="34" height="34" viewBox="0 0 34 34" fill="none" xmlns="http://www.w3.org/2000/svg">
<path d="M26.0314 12.2399L17.8484 8.19688C17.5844 8.06735 17.2941 8 17 8C16.7059 8 16.4156 8.06735 16.1516 8.19688L7.9686 12.2399C7.52797 12.4536 7.15649 12.7872 6.89675 13.2024C6.637 13.6176 6.4995 14.0976 6.5 14.5873V23.2409C6.5 24.6884 7.69156 25.8659 9.15641 25.8659H24.8436C26.3084 25.8659 27.5 24.6884 27.5 23.2409V14.5873C27.5005 14.0976 27.363 13.6176 27.1033 13.2024C26.8435 12.7872 26.472 12.4536 26.0314 12.2399ZM16.8303 9.53844C16.8831 9.51254 16.9412 9.49907 17 9.49907C17.0588 9.49907 17.1169 9.51254 17.1697 9.53844L25.1094 13.46L17.0469 17.4444C16.9941 17.4703 16.936 17.4838 16.8772 17.4838C16.8184 17.4838 16.7603 17.4703 16.7075 17.4444L8.76641 13.5224L16.8303 9.53844Z" fill="white"/>
<circle cx="17" cy="17" r="16.5" stroke="white"/>
</svg>
