<svg width="38" height="38" viewBox="0 0 38 38" fill="none" xmlns="http://www.w3.org/2000/svg">
<path d="M13.3003 26.916L19.0003 21.216L24.7003 26.916L26.917 24.6994L21.217 18.9993L26.917 13.2993L24.7003 11.0827L19.0003 16.7827L13.3003 11.0827L11.0837 13.2993L16.7837 18.9993L11.0837 24.6994L13.3003 26.916ZM19.0003 34.8327C16.81 34.8327 14.7517 34.4168 12.8253 33.585C10.8989 32.7532 9.22324 31.6254 7.79824 30.2014C6.37324 28.7764 5.24538 27.1007 4.41466 25.1743C3.58394 23.248 3.16805 21.1896 3.16699 18.9993C3.16699 16.8091 3.58288 14.7507 4.41466 12.8243C5.24644 10.898 6.3743 9.22227 7.79824 7.79727C9.22324 6.37227 10.8989 5.2444 12.8253 4.41368C14.7517 3.58296 16.81 3.16707 19.0003 3.16602C21.1906 3.16602 23.2489 3.5819 25.1753 4.41368C27.1017 5.24546 28.7774 6.37332 30.2024 7.79727C31.6274 9.22227 32.7558 10.898 33.5876 12.8243C34.4194 14.7507 34.8347 16.8091 34.8337 18.9993C34.8337 21.1896 34.4178 23.248 33.586 25.1743C32.7542 27.1007 31.6264 28.7764 30.2024 30.2014C28.7774 31.6264 27.1017 32.7548 25.1753 33.5866C23.2489 34.4184 21.1906 34.8337 19.0003 34.8327ZM19.0003 31.666C22.5364 31.666 25.5316 30.4389 27.9857 27.9848C30.4399 25.5306 31.667 22.5355 31.667 18.9993C31.667 15.4632 30.4399 12.4681 27.9857 10.0139C25.5316 7.55977 22.5364 6.33268 19.0003 6.33268C15.4642 6.33268 12.4691 7.55977 10.0149 10.0139C7.56074 12.4681 6.33366 15.4632 6.33366 18.9993C6.33366 22.5355 7.56074 25.5306 10.0149 27.9848C12.4691 30.4389 15.4642 31.666 19.0003 31.666Z" fill="#F24E1E"/>
</svg>
