<svg width="35" height="35" viewBox="0 0 35 35" fill="none" xmlns="http://www.w3.org/2000/svg">
<path d="M17.4993 2.97461C9.47852 2.97461 2.91602 9.52253 2.91602 17.5871C2.91602 24.8788 8.25351 30.9309 15.2243 32.0246V21.8163H11.5202V17.5871H15.2243V14.3642C15.2243 10.7038 17.3973 8.69128 20.7368 8.69128C22.3264 8.69128 23.9889 8.96836 23.9889 8.96836V12.5704H22.1514C20.3431 12.5704 19.7743 13.6934 19.7743 14.8454V17.5871H23.8285L23.1723 21.8163H19.7743V32.0246C23.2108 31.4819 26.3401 29.7285 28.5972 27.0809C30.8543 24.4334 32.0905 21.0662 32.0827 17.5871C32.0827 9.52253 25.5202 2.97461 17.4993 2.97461Z" fill="white"/>
</svg>
