<svg width="49" height="49" viewBox="0 0 49 49" fill="none" xmlns="http://www.w3.org/2000/svg">
<path d="M48.8814 11.4181C49.039 11.0423 49.0395 10.6189 48.883 10.2431L45.0323 0.946482C44.708 0.164632 43.8113 -0.206805 43.029 0.116977L30.2741 5.39986C29.2309 5.83376 28.6331 7.18335 27.5893 7.61573L9.15506 15.2515C8.10994 15.6845 7.51078 17.0365 6.4656 17.4694L0.945716 19.7553C0.164411 20.0807 -0.206482 20.9768 0.116757 21.7592L2.40649 27.2882C2.40652 27.2883 2.4066 27.2883 2.4066 27.2882C2.4066 27.2882 2.40668 27.2882 2.4067 27.2882C2.73111 28.0699 3.62764 28.4407 4.40938 28.1164L9.93361 25.8285C10.9781 25.396 12.3488 25.9184 13.398 25.4974L32.1214 17.7417L32.7351 17.476C33.186 17.2807 33.7024 17.4111 34.1741 17.549C34.5379 17.6854 34.9397 17.6784 35.2981 17.5295L48.0513 12.2471C48.4282 12.0934 48.7271 11.7944 48.8814 11.4181ZM34.6236 16.0627C34.6237 16.0627 34.6237 16.0626 34.6237 16.0626C34.5616 16.0436 34.5076 16.0031 34.4719 15.9486C34.4719 15.9485 34.4718 15.9486 34.4718 15.9486C34.4718 15.9487 34.4717 15.9487 34.4717 15.9486C34.4023 15.743 34.2503 15.5759 34.0517 15.4876C33.8535 15.3994 33.6272 15.3983 33.4279 15.4844L31.5161 16.3123L13.0712 23.9721C12.9372 24.0277 12.7835 23.9642 12.7279 23.8303C12.5628 23.4355 12.1096 23.2482 11.7138 23.4112L6.58671 25.5481C5.06931 26.1806 3.32643 25.4642 2.69244 23.9475C2.05654 22.4261 2.77751 20.6776 4.30089 20.0467L9.43815 17.9189C9.43839 17.9188 9.4386 17.9186 9.43878 17.9185C9.43896 17.9183 9.43917 17.9181 9.4394 17.918C9.83496 17.7533 10.0227 17.2992 9.85866 16.903C9.79912 16.7862 9.85174 16.6435 9.97282 16.5933L30.5592 8.06603C30.7221 7.99863 31.3411 8.0261 31.4086 8.18901L34.6703 16.065C34.6726 16.0705 34.6672 16.0761 34.6615 16.0742C34.649 16.07 34.6363 16.0663 34.6236 16.0628C34.6236 16.0628 34.6236 16.0627 34.6236 16.0627ZM40.7571 13.5888C38.1971 14.6494 35.2621 13.4337 34.2018 10.8736C33.1427 8.31629 34.3549 5.38438 36.9107 4.32167L38.9671 3.46661C41.5253 2.40291 44.4615 3.61358 45.5265 6.17122C46.5932 8.73301 45.3783 11.6742 42.8146 12.7364L40.7571 13.5888Z" fill="white"/>
<path d="M20.9244 32.448C20.9244 32.4482 20.9244 32.4484 20.9243 32.4486L15.5624 47.9423C15.4222 48.3473 15.6371 48.7896 16.0427 48.9299C16.4477 49.0701 16.89 48.8552 17.0303 48.4502L22.0129 34.0507C22.1314 33.7084 22.4538 33.4788 22.8161 33.4788C23.2841 33.4788 23.664 33.8572 23.6659 34.3252L23.7226 48.227C23.7242 48.6542 24.0713 49.0002 24.499 49.0002H24.5023C24.9306 48.9986 25.2771 48.6493 25.2755 48.2205L25.2185 34.3807C25.2165 33.8827 25.6197 33.478 26.1177 33.4781C26.4988 33.4783 26.8384 33.7187 26.9651 34.0782L31.9218 48.142C32.0652 48.5449 32.5076 48.7555 32.911 48.6131C33.3144 48.4712 33.5266 48.0299 33.3864 47.626L28.0353 32.4439C27.9254 32.1337 27.6325 31.9258 27.3033 31.9258C26.145 31.9258 25.2046 30.9893 25.1999 29.831L25.1982 29.4172V26.2366C25.1982 24.312 26.3543 22.5758 28.1301 21.8337C28.5243 21.6674 28.7094 21.2137 28.5443 20.819C28.3797 20.4243 27.9265 20.2375 27.5312 20.401L24.6622 21.6C24.4878 21.6728 24.2946 21.6968 24.1203 21.7699C23.9474 21.8425 23.7958 21.9617 23.6228 22.034L20.7675 23.2274C20.5769 23.3064 20.4253 23.458 20.3468 23.6492C20.2677 23.8397 20.2682 24.0542 20.3478 24.2442C20.4274 24.4348 20.5796 24.5859 20.7707 24.6638C20.9618 24.7418 21.1763 24.7407 21.3663 24.66C22.4502 24.2072 23.6458 25.0034 23.6458 26.178V29.4199C23.6458 29.4203 23.6458 29.4207 23.6459 29.421C23.6462 29.4217 23.6462 29.4225 23.6459 29.4232C23.6458 29.4236 23.6458 29.4239 23.6458 29.4243L23.6478 29.9279C23.6524 31.03 22.7602 31.9258 21.6581 31.9258C21.3274 31.9258 21.0329 32.1352 20.9245 32.4475C20.9245 32.4477 20.9244 32.4479 20.9244 32.448Z" fill="white"/>
</svg>
