<svg width="28" height="28" viewBox="0 0 28 28" fill="none" xmlns="http://www.w3.org/2000/svg">
<path d="M6.99935 22.168V11.668C6.99935 9.81145 7.73685 8.03098 9.0496 6.71822C10.3624 5.40547 12.1428 4.66797 13.9993 4.66797C15.8559 4.66797 17.6363 5.40547 18.9491 6.71822C20.2619 8.03098 20.9993 9.81145 20.9993 11.668V22.168M6.99935 22.168H20.9993M6.99935 22.168H4.66602M20.9993 22.168H23.3327M12.8327 25.668H15.166" stroke="#1E1E1E" stroke-width="1.5" stroke-linecap="round" stroke-linejoin="round"/>
<path d="M13.9987 4.66732C14.643 4.66732 15.1654 4.14498 15.1654 3.50065C15.1654 2.85632 14.643 2.33398 13.9987 2.33398C13.3544 2.33398 12.832 2.85632 12.832 3.50065C12.832 4.14498 13.3544 4.66732 13.9987 4.66732Z" stroke="#1E1E1E" stroke-width="1.5"/>
</svg>
