<svg width="26" height="26" viewBox="0 0 26 26" fill="none" xmlns="http://www.w3.org/2000/svg">
<path d="M21.9375 4.0625H4.0625C3.63152 4.0625 3.2182 4.2337 2.91345 4.53845C2.6087 4.8432 2.4375 5.25652 2.4375 5.6875V20.3125C2.4375 20.7435 2.6087 21.1568 2.91345 21.4615C3.2182 21.7663 3.63152 21.9375 4.0625 21.9375H5.42242C5.57619 21.9375 5.72682 21.894 5.85681 21.8118C5.98679 21.7296 6.09079 21.6123 6.15672 21.4734C6.55182 20.6392 7.1756 19.9343 7.95554 19.4408C8.73547 18.9472 9.6395 18.6852 10.5625 18.6852C11.4855 18.6852 12.3895 18.9472 13.1695 19.4408C13.9494 19.9343 14.5732 20.6392 14.9683 21.4734C15.0342 21.6123 15.1382 21.7296 15.2682 21.8118C15.3982 21.894 15.5488 21.9375 15.7026 21.9375H21.9375C22.3685 21.9375 22.7818 21.7663 23.0865 21.4615C23.3913 21.1568 23.5625 20.7435 23.5625 20.3125V5.6875C23.5625 5.25652 23.3913 4.8432 23.0865 4.53845C22.7818 4.2337 22.3685 4.0625 21.9375 4.0625ZM8.125 14.625C8.125 14.1429 8.26796 13.6716 8.53579 13.2708C8.80363 12.87 9.18431 12.5575 9.62971 12.373C10.0751 12.1886 10.5652 12.1403 11.038 12.2343C11.5109 12.3284 11.9452 12.5605 12.2861 12.9014C12.627 13.2423 12.8591 13.6766 12.9532 14.1495C13.0472 14.6223 12.9989 15.1124 12.8145 15.5578C12.63 16.0032 12.3175 16.3839 11.9167 16.6517C11.5159 16.9195 11.0446 17.0625 10.5625 17.0625C9.91603 17.0625 9.29605 16.8057 8.83893 16.3486C8.38181 15.8915 8.125 15.2715 8.125 14.625ZM21.9375 20.3125H16.1921C15.5136 19.146 14.4908 18.2179 13.2641 17.6556C13.8791 17.108 14.3132 16.3863 14.5088 15.5864C14.7044 14.7864 14.6522 13.9459 14.3592 13.1762C14.0662 12.4066 13.5462 11.7441 12.8682 11.2768C12.1901 10.8094 11.386 10.5591 10.5625 10.5591C9.73897 10.5591 8.93488 10.8094 8.25684 11.2768C7.57879 11.7441 7.0588 12.4066 6.76581 13.1762C6.47281 13.9459 6.42065 14.7864 6.61623 15.5864C6.8118 16.3863 7.24589 17.108 7.86094 17.6556C6.63417 18.2179 5.61139 19.146 4.93289 20.3125H4.0625V5.6875H21.9375V20.3125ZM5.6875 9.75V8.125C5.6875 7.90951 5.7731 7.70285 5.92548 7.55048C6.07785 7.3981 6.28451 7.3125 6.5 7.3125H19.5C19.7155 7.3125 19.9222 7.3981 20.0745 7.55048C20.2269 7.70285 20.3125 7.90951 20.3125 8.125V17.875C20.3125 18.0905 20.2269 18.2972 20.0745 18.4495C19.9222 18.6019 19.7155 18.6875 19.5 18.6875H17.875C17.6595 18.6875 17.4528 18.6019 17.3005 18.4495C17.1481 18.2972 17.0625 18.0905 17.0625 17.875C17.0625 17.6595 17.1481 17.4528 17.3005 17.3005C17.4528 17.1481 17.6595 17.0625 17.875 17.0625H18.6875V8.9375H7.3125V9.75C7.3125 9.96549 7.2269 10.1722 7.07452 10.3245C6.92215 10.4769 6.71549 10.5625 6.5 10.5625C6.28451 10.5625 6.07785 10.4769 5.92548 10.3245C5.7731 10.1722 5.6875 9.96549 5.6875 9.75Z" fill="white"/>
</svg>
