<svg width="28" height="28" viewBox="0 0 28 28" fill="none" xmlns="http://www.w3.org/2000/svg">
<path d="M24.5002 24.5002L19.4334 19.4334M19.4334 19.4334C20.3001 18.5667 20.9876 17.5378 21.4567 16.4054C21.9257 15.273 22.1671 14.0593 22.1671 12.8336C22.1671 11.6079 21.9257 10.3942 21.4567 9.26177C20.9876 8.12937 20.3001 7.10044 19.4334 6.23374C18.5667 5.36704 17.5378 4.67953 16.4054 4.21048C15.273 3.74142 14.0593 3.5 12.8336 3.5C11.6079 3.5 10.3942 3.74142 9.26177 4.21048C8.12937 4.67953 7.10044 5.36704 6.23374 6.23374C4.48336 7.98413 3.5 10.3582 3.5 12.8336C3.5 15.309 4.48336 17.683 6.23374 19.4334C7.98413 21.1838 10.3582 22.1671 12.8336 22.1671C15.309 22.1671 17.683 21.1838 19.4334 19.4334Z" stroke="black" stroke-linecap="round" stroke-linejoin="round"/>
</svg>
