<svg width="121" height="121" viewBox="0 0 121 121" fill="none" xmlns="http://www.w3.org/2000/svg">
<path fill-rule="evenodd" clip-rule="evenodd" d="M66.5496 18.1504H60.4996C55.134 18.1511 49.9207 19.9341 45.6784 23.2193C41.4362 26.5044 38.4053 31.1057 37.0619 36.3004H36.2996C29.8814 36.3004 23.726 38.85 19.1876 43.3884C14.6492 47.9268 12.0996 54.0822 12.0996 60.5004C12.0996 66.9186 14.6492 73.074 19.1876 77.6124C23.726 82.1508 29.8814 84.7004 36.2996 84.7004H84.6996C90.6501 84.7091 96.3951 82.5251 100.837 78.5657C105.279 74.6064 108.107 69.1493 108.78 63.237C109.452 57.3247 107.924 51.3718 104.485 46.5155C101.046 41.6592 95.9388 38.2401 90.1386 36.9114C88.9062 31.5783 85.9032 26.8201 81.6192 23.4129C77.3353 20.0058 72.0233 18.1507 66.5496 18.1504ZM41.7507 42.3504L42.9183 37.8129C43.9265 33.9166 46.2002 30.4656 49.3824 28.0018C52.5646 25.5379 56.4751 24.2008 60.4996 24.2004H66.5496C75.0499 24.2004 82.3643 30.0991 84.2398 38.2666L85.0868 41.9571L88.7773 42.8102C93.1155 43.819 96.9315 46.3872 99.4994 50.0263C102.067 53.6654 103.208 58.1215 102.705 62.5468C102.201 66.9722 100.089 71.0581 96.7687 74.0273C93.4489 76.9965 89.1535 78.6419 84.6996 78.6504H36.2996C31.4859 78.6504 26.8694 76.7382 23.4656 73.3344C20.0618 69.9306 18.1496 65.3141 18.1496 60.5004C18.1496 55.6867 20.0618 51.0702 23.4656 47.6664C26.8694 44.2626 31.4859 42.3504 36.2996 42.3504H41.7507Z" fill="#1E1E1E" fill-opacity="0.5"/>
<path d="M66.55 99.8258C66.55 100.628 66.2313 101.397 65.664 101.965C65.0967 102.532 64.3273 102.851 63.525 102.851C62.7227 102.851 61.9533 102.532 61.386 101.965C60.8187 101.397 60.5 100.628 60.5 99.8258V54.4508C60.5 53.6485 60.8187 52.8791 61.386 52.3118C61.9533 51.7445 62.7227 51.4258 63.525 51.4258C64.3273 51.4258 65.0967 51.7445 65.664 52.3118C66.2313 52.8791 66.55 53.6485 66.55 54.4508V99.8258Z" fill="#1E1E1E" fill-opacity="0.5"/>
<path d="M50.2875 68.9091C49.6581 69.3656 48.877 69.5623 48.1065 69.4582C47.3359 69.3542 46.635 68.9573 46.1492 68.3501C45.6635 67.743 45.4302 66.972 45.4978 66.1974C45.5654 65.4228 45.9287 64.7039 46.5123 64.1901L61.6373 52.0901C62.2668 51.6335 63.0478 51.4368 63.8184 51.5409C64.589 51.645 65.2899 52.0418 65.7757 52.649C66.2614 53.2562 66.4947 54.0271 66.4271 54.8017C66.3595 55.5764 65.9961 56.2952 65.4125 56.8091L50.2875 68.9091Z" fill="#1E1E1E" fill-opacity="0.5"/>
<path d="M80.5377 64.1906C81.1213 64.7044 81.4846 65.4233 81.5522 66.1979C81.6198 66.9725 81.3866 67.7434 80.9008 68.3506C80.415 68.9578 79.7141 69.3546 78.9435 69.4587C78.173 69.5628 77.3919 69.3661 76.7625 68.9096L61.6375 56.8096C61.3062 56.5693 61.0271 56.2642 60.8171 55.9129C60.6072 55.5616 60.4707 55.1714 60.4159 54.7658C60.3611 54.3602 60.3892 53.9478 60.4985 53.5534C60.6077 53.1589 60.7959 52.7908 61.0515 52.4712C61.3072 52.1517 61.6251 51.8873 61.9859 51.6941C62.3467 51.5009 62.7429 51.383 63.1506 51.3474C63.5583 51.3118 63.969 51.3593 64.3578 51.4871C64.7467 51.6148 65.1055 51.8201 65.4127 52.0906L80.5377 64.1906Z" fill="#1E1E1E" fill-opacity="0.5"/>
</svg>
